<svg width="30" height="44" fill="none" xmlns="http://www.w3.org/2000/svg"><path d="M14.667 2.068 1.379 22l13.288 19.932L27.955 22 14.667 2.068Zm0-2.068 14.666 22-14.666 22L0 22 14.667 0Z" fill="#FFC22D"/><path d="m10.677 16.852-1.31 1.76-.547 5.573v-6.13l1.857-1.203ZM14.12 11.484l-1.702 1.79-.577 2.713V13.36l1.31-1.114v.058l.968-.821Z" fill="#FFC22D"/><path d="M6.404 24.185H8.82l-2.21.411L5.67 26.4l.733-2.215ZM12.809 15.356v-1.613l1.858-1.438v1.804l-1.858 1.247ZM13.562 26.253h-.577v-1.818l.577-.059v1.877ZM13.562 22.308l-.577.132v-1.819l.577-.205v1.892ZM13.562 18.612l-.577.264v-1.833l.577-.323v1.892ZM11.88 26.253h-.47v-1.642l.47-.059v1.701ZM11.88 22.704l-.47.103v-1.643l.47-.161v1.701ZM11.88 19.375l-.47.205v-1.643l.47-.264v1.702ZM10.433 26.253h-.391v-1.496l.39-.044v1.54ZM10.433 23.041l-.391.088v-1.496l.39-.132v1.54ZM10.433 20.02l-.391.176V18.7l.39-.22v1.54Z" fill="#FFC22D"/><path d="m14.12 11.484.547-.528-1.516 1.29V9.974l1.516-2.2 1.515 2.2v2.274l1.31 1.114v2.64l3.032 2.039v6.13h2.405l.733 2.23h-8.995V14.109l1.857 1.247v-1.613l-1.857-1.438V11.03l-.548.455Zm.068-1.144-.46.425v.88l.46-.396v-.909Zm2.16 6.703-.586-.323v1.892l.586.264v-1.833Zm0 3.578-.586-.205v1.892l.586.132v-1.819Zm0 3.814-.586-.059v1.877h.586v-1.818Zm2.553 1.818h.39v-1.496l-.39-.044v1.54Zm0-3.212.39.088v-1.496l-.39-.132v1.54Zm0-3.021.39.176V18.7l-.39-.22v1.54Zm-1.448 6.233h.48v-1.642l-.48-.059v1.701Zm0-3.549.48.117V21.18l-.48-.162v1.687Zm0-3.33.48.22v-1.642l-.48-.264v1.687Zm-2.385-8.11.46.396v-.88l-.46-.425v.909Z" fill="#FFC22D"/><path d="m14.12 11.484-.969.821v-.058l1.516-1.276-.548.513ZM25.471 26.327l-21.56.073 10.756 16.133L25.47 26.327Z" fill="#FFC22D"/></svg>